<svg t="1704017611914" class="icon" viewBox="0 0 1024 1024" version="1.1" xmlns="http://www.w3.org/2000/svg" p-id="6236" width="200" height="200"><path d="M983.762515 448.011999a219.826261 219.826261 0 0 0-9.91938-0.223986c-28.670208 0-56.444472 5.59965-82.602838 14.615087 30.574089-72.211487 44.869196-149.030686 41.661397-226.08187a39.9975 39.9975 0 0 0-54.612587-35.557778c-34.893819 13.735142-70.419599 34.477845-102.985563 59.380289 7.479533-77.875133-3.36779-159.542029-48.716956-239.825011A39.9975 39.9975 0 0 0 668.350228 7.567527c-3.079808 2.223861-73.867383 53.91663-136.327479 151.654522C490.193363 66.475845 437.844635 14.223111 435.060809 11.479283a40.013499 40.013499 0 0 0-62.444098 8.103493c-31.054059 52.31673-52.876695 105.969377-64.651959 158.294107a782.143116 782.143116 0 0 0-78.987063-67.883758 40.0055 40.0055 0 0 0-62.220111 20.214737c-20.63871 66.955815-19.334792 161.165927 3.51978 251.984251l0.231985 0.911943c-1.311918-0.575964-2.623836-1.151928-3.967752-1.719893-60.988188-25.654397-131.471783 3.095807-157.126179 64.083995-25.646397 60.988188 3.095807 131.479783 64.083994 157.12618a39.9975 39.9975 0 1 0 31.014062-73.731392 40.045497 40.045497 0 0 1-21.358665-52.380726 40.053497 40.053497 0 0 1 52.372727-21.358665c42.525342 17.886882 57.868383 40.557465 81.082932 74.867321 11.84726 17.510906 25.222424 37.245672 43.885257 58.020373a39.973502 39.973502 0 0 0-21.958628 42.525342l59.996251 359.977502A39.9975 39.9975 0 0 0 337.986876 1023.936004h383.976001a39.9975 39.9975 0 0 0 39.453534-33.421911l10.999313-65.995875a39.9975 39.9975 0 1 0-78.907068-13.151178L688.084995 943.941004h-316.220237L325.211674 663.958503h409.534404l-12.239235 73.419411a39.9975 39.9975 0 1 0 78.907069 13.151178l19.99875-119.992501c0.063996-0.367977 0.079995-0.735954 0.127992-1.095931a39.333542 39.333542 0 0 0 0.359977-4.351728c0.008-0.375977 0.055997-0.743954 0.055997-1.12793 0-0.215987-0.031998-0.431973-0.031998-0.647959-0.015999-0.79995-0.063996-1.5999-0.119993-2.391851-0.039998-0.543966-0.079995-1.087932-0.143991-1.631898a38.117618 38.117618 0 0 0-0.343978-2.247859c-0.095994-0.575964-0.199988-1.151928-0.31998-1.719893-0.151991-0.671958-0.32798-1.319918-0.511968-1.975876-0.16799-0.631961-0.343979-1.255922-0.543966-1.871883-0.191988-0.575964-0.407975-1.135929-0.623961-1.703894a37.829636 37.829636 0 0 0-0.783951-1.959877c-0.231986-0.511968-0.47997-1.015937-0.727955-1.519905-0.31998-0.64796-0.63996-1.303919-0.999937-1.935879-0.279983-0.48797-0.583964-0.95994-0.879945-1.43991a40.613462 40.613462 0 0 0-1.151928-1.791888c-0.343979-0.495969-0.719955-0.96794-1.079933-1.44791l-0.15999-0.199987c41.789388-34.805825 103.689519-74.419349 166.597588-71.547528 22.030623 0.943941 40.773452-16.078995 41.773389-38.141617a39.9975 39.9975 0 0 0-38.141616-41.773389zM377.384413 583.963502a40.029498 40.029498 0 0 0-3.83176-3.007812 331.475283 331.475283 0 0 1-19.342791-14.271108c-93.458159-101.27367-127.408037-248.0005-121.432411-350.002125 73.859384 66.931817 130.759828 147.006812 169.549404 238.761078 23.902506 56.548466 34.517843 103.52153 38.933566 128.519967h-63.876008z m71.243548-219.386288c-0.103994 0.503969-0.183989 1.015937-0.287982 1.519905a765.976126 765.976126 0 0 0-70.483595-109.457159c0.023999-0.399975 0.079995-0.783951 0.103993-1.183926 1.639898-44.589213 14.271108-93.866133 36.237736-142.759078a510.272108 510.272108 0 0 1 68.15574 141.431161 586.56334 586.56334 0 0 0-33.725892 110.449097zM783.287045 497.328917a501.328667 501.328667 0 0 1-45.997126 62.71608A546.333854 546.333854 0 0 0 713.187426 583.963502H526.895069c-24.686457-133.239673-2.71983-257.703894 65.491907-370.352853A563.1968 563.1968 0 0 1 678.101619 105.11343c45.28517 121.91238 3.919755 247.560527-44.669209 356.569715a39.9975 39.9975 0 1 0 73.067434 32.557965c11.919255-26.734329 23.694519-55.140554 34.125867-84.834698 2.295857-2.055872 4.407725-4.375727 6.23961-7.023561 24.934442-36.053747 63.180051-71.443535 104.057496-97.705893-7.119555 66.995813-29.75814 131.567777-67.635772 192.651959z" fill="#3C9D17" p-id="6237"></path></svg>
